<?xml version="1.0" encoding="UTF-8"?>
<svg width="700pt" height="700pt" version="1.1" viewBox="0 0 700 700" xmlns="http://www.w3.org/2000/svg" xmlns:xlink="http://www.w3.org/1999/xlink">
 <defs>
 </defs>
 <g>
  <path fill="red" d="m352.39 29.012c-83.328 0-150.88 67.551-150.88 150.88 0 126 150.35 350.12 150.88 350.1 0.64062-0.023438 150.88-226.09 150.88-350.1 0.003907-83.328-67.547-150.88-150.88-150.88zm0.78516 276.83c-69.699 0-126.2-56.5-126.2-126.2s56.5-126.2 126.2-126.2c69.699 0 126.2 56.5 126.2 126.2-0.003906 69.695-56.5 126.2-126.2 126.2z"/>
  <path fill="red" d="m446.86 188.12c0.33203 0.17578 0.66016 0.35156 0.92188 0.49219-0.21875-0.12109-0.53516-0.28516-0.92188-0.49219z"/>
  <path fill="red" d="m445.46 187.37c0.26172 0.14062 0.49609 0.26562 0.71875 0.37891-0.28125-0.15234-0.54297-0.28516-0.71875-0.37891z"/>
  <path fill="red" d="m445.2 187.23c0.09375 0.050781 0.16406 0.089843 0.25391 0.13672-0.15234-0.085938-0.25391-0.13672-0.25391-0.13672z"/>
  <path fill="red" d="m447.79 188.61c0.84375 0.44922 0.60156 0.31641 0 0z"/>
  <path fill="red" d="m450.41 183.15c-0.003906-0.011719-0.003906-0.011719 0 0z"/>
  <path fill="red" d="m453.41 190.23c0.015625 0.039063 0.015625 0.039063 0 0z"/>
  <path fill="red" d="m417.23 118.94h-24.293v-5.1836c0-8.5898-3.4805-15.551-7.7734-15.551h-64.141c-4.2891 0-7.7734 6.9609-7.7734 15.551v5.1836h-24.305c-8.5859 0-15.551 6.9609-15.551 15.551l-0.003907 84.883c0 8.582 6.9609 15.551 15.551 15.551h128.28c8.5859 0 15.551-6.9648 15.551-15.551l0.003906-84.883c0.003906-8.5898-6.9648-15.551-15.547-15.551zm-64.465 92.656c-18.785 0-34.016-15.23-34.016-34.016 0.003906-18.789 15.23-34.016 34.016-34.016 18.785 0 34.012 15.23 34.012 34.016 0 18.789-15.227 34.016-34.012 34.016z"/>
  <use x="182.382812" y="589.878906" xlink:href="#v"/>
  <use x="189.691406" y="589.878906" xlink:href="#c"/>
  <use x="194.605469" y="589.878906" xlink:href="#a"/>
  <use x="201.359375" y="589.878906" xlink:href="#k"/>
  <use x="208.082031" y="589.878906" xlink:href="#b"/>
  <use x="212.84375" y="589.878906" xlink:href="#a"/>
  <use x="219.597656" y="589.878906" xlink:href="#f"/>
  <use x="230.195312" y="589.878906" xlink:href="#j"/>
  <use x="237.324219" y="589.878906" xlink:href="#i"/>
  <use x="247.285156" y="589.878906" xlink:href="#e"/>
  <use x="253.1875" y="589.878906" xlink:href="#d"/>
  <use x="260.03125" y="589.878906" xlink:href="#c"/>
  <use x="264.941406" y="589.878906" xlink:href="#u"/>
  <use x="272.070312" y="589.878906" xlink:href="#h"/>
  <use x="279.160156" y="589.878906" xlink:href="#t"/>
  <use x="288.558594" y="589.878906" xlink:href="#f"/>
  <use x="295.6875" y="589.878906" xlink:href="#a"/>
  <use x="302.441406" y="589.878906" xlink:href="#s"/>
  <use x="305.855469" y="589.878906" xlink:href="#g"/>
  <use x="309.269531" y="589.878906" xlink:href="#e"/>
  <use x="315.171875" y="589.878906" xlink:href="#b"/>
  <use x="319.933594" y="589.878906" xlink:href="#g"/>
  <use x="182.382812" y="599.839844" xlink:href="#r"/>
  <use x="186.71875" y="599.839844" xlink:href="#c"/>
  <use x="191.628906" y="599.839844" xlink:href="#d"/>
  <use x="198.472656" y="599.839844" xlink:href="#q"/>
  <use x="212.316406" y="599.839844" xlink:href="#b"/>
  <use x="217.078125" y="599.839844" xlink:href="#p"/>
  <use x="224.167969" y="599.839844" xlink:href="#a"/>
  <use x="234.390625" y="599.839844" xlink:href="#o"/>
  <use x="242.726562" y="599.839844" xlink:href="#d"/>
  <use x="249.570312" y="599.839844" xlink:href="#h"/>
  <use x="256.660156" y="599.839844" xlink:href="#n"/>
  <use x="267.21875" y="599.839844" xlink:href="#m"/>
  <use x="274.515625" y="599.839844" xlink:href="#c"/>
  <use x="279.429687" y="599.839844" xlink:href="#d"/>
  <use x="286.273437" y="599.839844" xlink:href="#l"/>
  <use x="289.6875" y="599.839844" xlink:href="#a"/>
  <use x="296.441406" y="599.839844" xlink:href="#e"/>
  <use x="302.34375" y="599.839844" xlink:href="#b"/>
 </g>
</svg>
